<svg width="160" height="163" viewBox="0 0 160 163" fill="none" xmlns="http://www.w3.org/2000/svg">
<path d="M2.41113 129.923H19.4321V128.41H1.66113V129.923H2.41113Z" fill="#5C83E3"/>
<path d="M2.41113 119.83H19.5681V118.317H1.66113V119.83H2.41113Z" fill="#5C83E3"/>
<path d="M2.41113 109.736H69.3611V108.223H1.66113V109.736H2.41113Z" fill="#5C83E3"/>
<path d="M2.41113 99.643H85.7051V98.13H1.66113V99.643H2.41113Z" fill="#5C83E3"/>
<path d="M2.41113 89.55H85.7051V88.037H1.66113V89.55H2.41113Z" fill="#5C83E3"/>
<path d="M2.41113 79.456H85.7051V77.943H1.66113V79.456H2.41113Z" fill="#5C83E3"/>
<path d="M43.6523 69.363H85.7023V67.85H42.9023V69.363H43.6523Z" fill="#5C83E3"/>
<path d="M18.165 68.855V129.167H19.665V68.098H18.165V68.855Z" fill="#5C83E3"/>
<path d="M3.91213 157.37L3.16113 157.368V156.61L3.91113 157.368V156.612H3.16113V147.588H3.91113L3.16113 148.342H3.91113V156.611H9.76913V157.367L10.5161 156.612H9.76913V148.345H3.91113V147.588H9.76913V148.344H10.5151L9.76913 147.588H10.5181V148.347V156.612V157.366H3.91113L3.91213 157.37Z" fill="#5C83E3"/>
<path d="M3.91213 142.23L3.16113 142.228V141.47L3.91113 142.228V141.472H3.16113V132.448H3.91113L3.16113 133.202H3.91113V141.471H9.76913V142.227L10.5161 141.472H9.76913V133.205H3.91113V132.448H9.76913V133.204H10.5151L9.76913 132.448H10.5181V133.207V141.472V142.226H3.91113L3.91213 142.23Z" fill="#5C83E3"/>
<path d="M13.9141 157.37L13.1631 157.368V156.61L13.9131 157.368V156.612H13.1631V147.588H13.9131L13.1631 148.342H13.9131V156.611H19.7711V157.367L20.5181 156.612H19.7711V148.345H13.9131V147.588H19.7711V148.344H20.5171L19.7711 147.588H20.5201V148.347V156.612V157.366H13.9131L13.9141 157.37Z" fill="#5C83E3"/>
<path d="M23.917 157.37L23.166 157.368V156.61L23.916 157.368V156.612H23.166V147.588H23.916L23.166 148.342H23.916V156.611H29.774V157.367L30.521 156.612H29.774V148.345H23.916V147.588H29.774V148.344H30.52L29.774 147.588H30.523V148.347V156.612V157.366H23.916L23.917 157.37Z" fill="#5C83E3"/>
<path d="M23.917 142.23L23.166 142.228V141.47L23.916 142.228V141.472H23.166V132.448H23.916L23.166 133.202H23.916V141.471H29.774V142.227L30.521 141.472H29.774V133.205H23.916V132.448H29.774V133.204H30.52L29.774 132.448H30.523V133.207V141.472V142.226H23.916L23.917 142.23Z" fill="#5C83E3"/>
<path d="M23.917 127.089L23.166 127.087V126.329L23.916 127.087V126.331H23.166V117.307H23.916L23.166 118.061H23.916V126.33H29.774V127.086L30.521 126.331H29.774V118.064H23.916V117.307H29.774V118.063H30.52L29.774 117.307H30.523V118.066V126.331V127.085H23.916L23.917 127.089Z" fill="#5C83E3"/>
<path d="M33.919 157.37L33.168 157.368V156.61L33.918 157.368V156.612H33.168V147.588H33.918L33.168 148.342H33.918V156.611H39.776V157.367L40.523 156.612H39.776V148.345H33.918V147.588H39.776V148.344H40.522L39.776 147.588H40.525V148.347V156.612V157.366H33.918L33.919 157.37Z" fill="#5C83E3"/>
<path d="M43.9219 157.37L43.1709 157.368V156.61L43.9209 157.368V156.612H43.1709V147.588H43.9209L43.1709 148.342H43.9209V156.611H49.7789V157.367L50.5259 156.612H49.7789V148.345H43.9209V147.588H49.7789V148.344H50.5249L49.7789 147.588H50.5279V148.347V156.612V157.366H43.9209L43.9219 157.37Z" fill="#5C83E3"/>
<path d="M53.9239 157.37L53.1729 157.368V156.61L53.9229 157.368V156.612H53.1729V147.588H53.9229L53.1729 148.342H53.9229V156.611H59.7809V157.367L60.5279 156.612H59.7809V148.345H53.9229V147.588H59.7809V148.344H60.5269L59.7809 147.588H60.5299V148.347V156.612V157.366H53.9229L53.9239 157.37Z" fill="#5C83E3"/>
<path d="M63.9268 157.37L63.1758 157.368V156.61L63.9258 157.368V156.612H63.1758V147.588H63.9258L63.1758 148.342H63.9258V156.611H69.7838V157.367L70.5308 156.612H69.7838V148.345H63.9258V147.588H69.7838V148.344H70.5298L69.7838 147.588H70.5328V148.347V156.612V157.366H63.9258L63.9268 157.37Z" fill="#5C83E3"/>
<path d="M73.9287 157.37L73.1777 157.368V156.61L73.9277 157.368V156.612H73.1777V147.588H73.9277L73.1777 148.342H73.9277V156.611H79.7857V157.367L80.5327 156.612H79.7857V148.345H73.9277V147.588H79.7857V148.344H80.5317L79.7857 147.588H80.5347V148.347V156.612V157.366H73.9277L73.9287 157.37Z" fill="#5C83E3"/>
<path d="M73.9287 142.23L73.1777 142.228V141.47L73.9277 142.228V141.472H73.1777V132.448H73.9277L73.1777 133.202H73.9277V141.471H79.7857V142.227L80.5327 141.472H79.7857V133.205H73.9277V132.448H79.7857V133.204H80.5317L79.7857 132.448H80.5347V133.207V141.472V142.226H73.9277L73.9287 142.23Z" fill="#5C83E3"/>
<path d="M73.9287 127.089L73.1777 127.087V126.329L73.9277 127.087V126.331H73.1777V117.307H73.9277L73.1777 118.061H73.9277V126.33H79.7857V127.086L80.5327 126.331H79.7857V118.064H73.9277V117.307H79.7857V118.063H80.5317L79.7857 117.307H80.5347V118.066V126.331V127.085H73.9277L73.9287 127.089Z" fill="#5C83E3"/>
<path d="M73.9287 111.949L73.1777 111.947V111.189L73.9277 111.947V111.191H73.1777V102.167H73.9277L73.1777 102.921H73.9277V111.19H79.7857V111.946L80.5327 111.191H79.7857V102.924H73.9277V102.167H79.7857V102.923H80.5317L79.7857 102.167H80.5347V102.926V111.191V111.945H73.9277L73.9287 111.949Z" fill="#5C83E3"/>
<path d="M63.9268 142.23L63.1758 142.228V141.47L63.9258 142.228V141.472H63.1758V132.448H63.9258L63.1758 133.202H63.9258V141.471H69.7838V142.227L70.5308 141.472H69.7838V133.205H63.9258V132.448H69.7838V133.204H70.5298L69.7838 132.448H70.5328V133.207V141.472V142.226H63.9258L63.9268 142.23Z" fill="#5C83E3"/>
<path d="M63.9268 127.089L63.1758 127.087V126.329L63.9258 127.087V126.331H63.1758V117.307H63.9258L63.1758 118.061H63.9258V126.33H69.7838V127.086L70.5308 126.331H69.7838V118.064H63.9258V117.307H69.7838V118.063H70.5298L69.7838 117.307H70.5328V118.066V126.331V127.085H63.9258L63.9268 127.089Z" fill="#5C83E3"/>
<path d="M53.9239 142.23L53.1729 142.228V141.47L53.9229 142.228V141.472H53.1729V132.448H53.9229L53.1729 133.202H53.9229V141.471H59.7809V142.227L60.5279 141.472H59.7809V133.205H53.9229V132.448H59.7809V133.204H60.5269L59.7809 132.448H60.5299V133.207V141.472V142.226H53.9229L53.9239 142.23Z" fill="#5C83E3"/>
<path d="M53.9239 127.089L53.1729 127.087V126.329L53.9229 127.087V126.331H53.1729V117.307H53.9229L53.1729 118.061H53.9229V126.33H59.7809V127.086L60.5279 126.331H59.7809V118.064H53.9229V117.307H59.7809V118.063H60.5269L59.7809 117.307H60.5299V118.066V126.331V127.085H53.9229L53.9239 127.089Z" fill="#5C83E3"/>
<path d="M43.9219 142.23L43.1709 142.228V141.47L43.9209 142.228V141.472H43.1709V132.448H43.9209L43.1709 133.202H43.9209V141.471H49.7789V142.227L50.5259 141.472H49.7789V133.205H43.9209V132.448H49.7789V133.204H50.5249L49.7789 132.448H50.5279V133.207V141.472V142.226H43.9209L43.9219 142.23Z" fill="#5C83E3"/>
<path d="M43.9219 127.089L43.1709 127.087V126.329L43.9209 127.087V126.331H43.1709V117.307H43.9209L43.1709 118.061H43.9209V126.33H49.7789V127.086L50.5259 126.331H49.7789V118.064H43.9209V117.307H49.7789V118.063H50.5249L49.7789 117.307H50.5279V118.066V126.331V127.085H43.9209L43.9219 127.089Z" fill="#5C83E3"/>
<path d="M33.919 142.23L33.168 142.228V141.47L33.918 142.228V141.472H33.168V132.448H33.918L33.168 133.202H33.918V141.471H39.776V142.227L40.523 141.472H39.776V133.205H33.918V132.448H39.776V133.204H40.522L39.776 132.448H40.525V133.207V141.472V142.226H33.918L33.919 142.23Z" fill="#5C83E3"/>
<path d="M33.919 127.089L33.168 127.087V126.329L33.918 127.087V126.331H33.168V117.307H33.918L33.168 118.061H33.918V126.33H39.776V127.086L40.523 126.331H39.776V118.064H33.918V117.307H39.776V118.063H40.522L39.776 117.307H40.525V118.066V126.331V127.085H33.918L33.919 127.089Z" fill="#5C83E3"/>
<path d="M13.9141 142.23L13.1631 142.228V141.47L13.9131 142.228V141.472H13.1631V132.448H13.9131L13.1631 133.202H13.9131V141.471H19.7711V142.227L20.5181 141.472H19.7711V133.205H13.9131V132.448H19.7711V133.204H20.5171L19.7711 132.448H20.5201V133.207V141.472V142.226H13.9131L13.9141 142.23Z" fill="#5C83E3"/>
<path d="M0.160156 129.42V161.971H1.66016V128.663H0.160156V129.42Z" fill="#5C83E3"/>
<path d="M84.181 99.139V161.214L84.931 160.457H0V161.97H85.68V98.382H84.18V99.139H84.181Z" fill="#5C83E3"/>
<path d="M68.1768 57.757V109.248H69.6768V57H68.1768V57.757Z" fill="#5C83E3"/>
<path d="M43.1709 57.757V109.248H44.6709V57H43.1709V57.757Z" fill="#5C83E3"/>
<path d="M112.419 161.3V13.525L112.213 14.046L123.17 2.415L121.877 1.894V162.06H123.377V0L122.084 1.372L111.125 13L110.919 13.223V162.06H112.419V161.3Z" fill="#5C83E3"/>
<path d="M134.776 33.436H32.1L31.883 33.644L20.36 44.702L19 46.007H135.408V44.494H20.877L21.394 45.794L32.92 34.736L32.403 34.944H135.525V33.436H134.776Z" fill="#5C83E3"/>
<path d="M112.869 14.536L119.625 21.359L120.155 21.894L121.215 20.824L120.685 20.289L113.929 13.471L113.399 12.936L112.339 14.006L112.869 14.536Z" fill="#5C83E3"/>
<path d="M120.125 13.471L113.369 20.289L112.839 20.824L113.899 21.894L114.429 21.359L121.186 14.536L121.716 14.001L120.656 12.936L120.126 13.471H120.125Z" fill="#5C83E3"/>
<path d="M112.869 24.6291L119.625 31.4521L120.155 31.9871L121.215 30.9171L120.685 30.3821L113.929 23.5641L113.399 23.0291L112.339 24.0991L112.869 24.6291Z" fill="#5C83E3"/>
<path d="M120.125 23.5641L113.369 30.3821L112.839 30.9171L113.899 31.9871L114.429 31.4521L121.186 24.6291L121.716 24.0941L120.656 23.0291L120.126 23.5641H120.125Z" fill="#5C83E3"/>
<path d="M112.869 49.8629L119.625 56.6859L120.155 57.2209L121.215 56.1509L120.685 55.6159L113.929 48.7979L113.399 48.2629L112.339 49.3329L112.869 49.8629Z" fill="#5C83E3"/>
<path d="M124.372 36.741L131.128 43.564L131.658 44.099L132.718 43.029L132.188 42.494L125.432 35.676L124.902 35.141L123.842 36.211L124.372 36.741Z" fill="#5C83E3"/>
<path d="M112.869 59.956L119.625 66.779L120.155 67.314L121.215 66.244L120.685 65.709L113.929 58.891L113.399 58.356L112.339 59.426L112.869 59.956Z" fill="#5C83E3"/>
<path d="M112.869 70.05L119.625 76.873L120.155 77.408L121.215 76.338L120.685 75.803L113.929 68.985L113.399 68.45L112.339 69.52L112.869 70.05Z" fill="#5C83E3"/>
<path d="M112.869 80.143L119.625 86.966L120.155 87.501L121.215 86.431L120.685 85.896L113.929 79.078L113.399 78.543L112.339 79.613L112.869 80.143Z" fill="#5C83E3"/>
<path d="M112.869 90.236L119.625 97.059L120.155 97.594L121.215 96.524L120.685 95.989L113.929 89.171L113.399 88.636L112.339 89.706L112.869 90.236Z" fill="#5C83E3"/>
<path d="M112.869 100.33L119.625 107.153L120.155 107.688L121.215 106.618L120.685 106.083L113.929 99.265L113.399 98.73L112.339 99.8L112.869 100.33Z" fill="#5C83E3"/>
<path d="M112.869 110.423L119.625 117.246L120.155 117.781L121.215 116.711L120.685 116.176L113.929 109.358L113.399 108.823L112.339 109.893L112.869 110.423Z" fill="#5C83E3"/>
<path d="M112.869 120.517L119.625 127.34L120.155 127.875L121.215 126.805L120.685 126.27L113.929 119.452L113.399 118.917L112.339 119.987L112.869 120.517Z" fill="#5C83E3"/>
<path d="M112.869 130.61L119.625 137.433L120.155 137.968L121.215 136.898L120.685 136.363L113.929 129.545L113.399 129.01L112.339 130.08L112.869 130.61Z" fill="#5C83E3"/>
<path d="M112.869 140.704L119.625 147.527L120.155 148.062L121.215 146.992L120.685 146.457L113.929 139.639L113.399 139.104L112.339 140.174L112.869 140.704Z" fill="#5C83E3"/>
<path d="M112.869 150.797L119.625 157.62L120.155 158.155L121.215 157.085L120.685 156.55L113.929 149.732L113.399 149.197L112.339 150.267L112.869 150.797Z" fill="#5C83E3"/>
<path d="M120.125 149.732L113.369 156.55L112.839 157.085L113.899 158.155L114.429 157.62L121.186 150.797L121.716 150.262L120.656 149.197L120.126 149.732H120.125Z" fill="#5C83E3"/>
<path d="M120.125 139.639L113.369 146.457L112.839 146.992L113.899 148.062L114.429 147.527L121.186 140.704L121.716 140.169L120.656 139.104L120.126 139.639H120.125Z" fill="#5C83E3"/>
<path d="M120.125 129.545L113.369 136.363L112.839 136.898L113.899 137.968L114.429 137.433L121.186 130.61L121.716 130.075L120.656 129.01L120.126 129.545H120.125Z" fill="#5C83E3"/>
<path d="M120.125 119.452L113.369 126.27L112.839 126.805L113.899 127.875L114.429 127.34L121.186 120.517L121.716 119.982L120.656 118.917L120.126 119.452H120.125Z" fill="#5C83E3"/>
<path d="M120.125 109.358L113.369 116.176L112.839 116.711L113.899 117.781L114.429 117.246L121.186 110.423L121.716 109.888L120.656 108.823L120.126 109.358H120.125Z" fill="#5C83E3"/>
<path d="M120.125 99.265L113.369 106.083L112.839 106.618L113.899 107.688L114.429 107.153L121.186 100.33L121.716 99.795L120.656 98.73L120.126 99.265H120.125Z" fill="#5C83E3"/>
<path d="M120.125 89.171L113.369 95.989L112.839 96.524L113.899 97.594L114.429 97.059L121.186 90.236L121.716 89.701L120.656 88.636L120.126 89.171H120.125Z" fill="#5C83E3"/>
<path d="M120.125 79.078L113.369 85.896L112.839 86.431L113.899 87.501L114.429 86.966L121.186 80.143L121.716 79.608L120.656 78.543L120.126 79.078H120.125Z" fill="#5C83E3"/>
<path d="M120.125 68.985L113.369 75.803L112.839 76.338L113.899 77.408L114.429 76.873L121.186 70.05L121.716 69.515L120.656 68.45L120.126 68.985H120.125Z" fill="#5C83E3"/>
<path d="M120.125 58.891L113.369 65.709L112.839 66.244L113.899 67.314L114.429 66.779L121.186 59.956L121.716 59.421L120.656 58.356L120.126 58.891H120.125Z" fill="#5C83E3"/>
<path d="M120.125 48.7979L113.369 55.6159L112.839 56.1509L113.899 57.2209L114.429 56.6859L121.186 49.8629L121.716 49.3279L120.656 48.2629L120.126 48.7979H120.125Z" fill="#5C83E3"/>
<path d="M131.628 35.676L124.872 42.494L124.342 43.029L125.402 44.099L125.932 43.564L132.689 36.741L133.219 36.206L132.159 35.141L131.629 35.676H131.628Z" fill="#5C83E3"/>
<path d="M112.869 36.741L119.625 43.564L120.155 44.099L121.215 43.029L120.685 42.494L113.929 35.676L113.399 35.141L112.339 36.211L112.869 36.741Z" fill="#5C83E3"/>
<path d="M120.125 35.676L113.369 42.494L112.839 43.029L113.899 44.099L114.429 43.564L121.186 36.741L121.716 36.206L120.656 35.141L120.126 35.676H120.125Z" fill="#5C83E3"/>
<path d="M101.366 36.741L108.122 43.564L108.652 44.099L109.712 43.029L109.182 42.494L102.426 35.676L101.896 35.141L100.836 36.211L101.366 36.741Z" fill="#5C83E3"/>
<path d="M108.623 35.676L101.867 42.494L101.337 43.029L102.397 44.099L102.927 43.564L109.684 36.741L110.214 36.206L109.154 35.141L108.624 35.676H108.623Z" fill="#5C83E3"/>
<path d="M91.364 36.741L98.12 43.564L98.65 44.099L99.71 43.029L99.18 42.494L92.424 35.676L91.894 35.141L90.834 36.211L91.364 36.741Z" fill="#5C83E3"/>
<path d="M98.62 35.676L91.864 42.494L91.334 43.029L92.394 44.099L92.924 43.564L99.681 36.741L100.211 36.206L99.151 35.141L98.621 35.676H98.62Z" fill="#5C83E3"/>
<path d="M81.3611 36.741L88.1171 43.564L88.6471 44.099L89.7071 43.029L89.1771 42.494L82.4211 35.676L81.8911 35.141L80.8311 36.211L81.3611 36.741Z" fill="#5C83E3"/>
<path d="M88.618 35.676L81.862 42.494L81.332 43.029L82.392 44.099L82.922 43.564L89.679 36.741L90.209 36.206L89.149 35.141L88.619 35.676H88.618Z" fill="#5C83E3"/>
<path d="M71.3591 36.741L78.1151 43.564L78.6451 44.099L79.7051 43.029L79.1751 42.494L72.4191 35.676L71.8891 35.141L70.8291 36.211L71.3591 36.741Z" fill="#5C83E3"/>
<path d="M78.6151 35.676L71.8591 42.494L71.3291 43.029L72.3891 44.099L72.9191 43.564L79.6761 36.741L80.2061 36.206L79.1461 35.141L78.6161 35.676H78.6151Z" fill="#5C83E3"/>
<path d="M61.3562 36.741L68.1122 43.564L68.6422 44.099L69.7022 43.029L69.1722 42.494L62.4162 35.676L61.8862 35.141L60.8262 36.211L61.3562 36.741Z" fill="#5C83E3"/>
<path d="M68.6131 35.676L61.8571 42.494L61.3271 43.029L62.3871 44.099L62.9171 43.564L69.6741 36.741L70.2041 36.206L69.1441 35.141L68.6141 35.676H68.6131Z" fill="#5C83E3"/>
<path d="M51.3542 36.741L58.1102 43.564L58.6402 44.099L59.7002 43.029L59.1702 42.494L52.4142 35.676L51.8842 35.141L50.8242 36.211L51.3542 36.741Z" fill="#5C83E3"/>
<path d="M58.6102 35.676L51.8542 42.494L51.3242 43.029L52.3842 44.099L52.9142 43.564L59.6712 36.741L60.2012 36.206L59.1412 35.141L58.6112 35.676H58.6102Z" fill="#5C83E3"/>
<path d="M41.3513 36.741L48.1073 43.564L48.6373 44.099L49.6973 43.029L49.1673 42.494L42.4113 35.676L41.8813 35.141L40.8213 36.211L41.3513 36.741Z" fill="#5C83E3"/>
<path d="M48.6083 35.676L41.8523 42.494L41.3223 43.029L42.3823 44.099L42.9123 43.564L49.6693 36.741L50.1993 36.206L49.1393 35.141L48.6093 35.676H48.6083Z" fill="#5C83E3"/>
<path d="M31.3493 36.741L38.1053 43.564L38.6353 44.099L39.6953 43.029L39.1653 42.494L32.4093 35.676L31.8793 35.141L30.8193 36.211L31.3493 36.741Z" fill="#5C83E3"/>
<path d="M38.6053 35.676L31.8493 42.494L31.3193 43.029L32.3793 44.099L32.9093 43.564L39.6663 36.741L40.1963 36.206L39.1363 35.141L38.6063 35.676H38.6053Z" fill="#5C83E3"/>
<path d="M136.405 51.858H134.905V50.343L136.405 51.858L136.675 50.343L134.905 50.345V29.145V27.632H136.405L134.905 29.143L136.405 29.143L136.675 50.343H158.412V51.855L158.405 29.146L134.905 29.143V27.632H159.912V29.148V50.348V51.858H136.405Z" fill="#5C83E3"/>
<path d="M136.155 44.285H159.91V42.772H135.405V44.285H136.155Z" fill="#5C83E3"/>
<path d="M136.155 36.715H159.91V35.202H135.405V36.715H136.155Z" fill="#5C83E3"/>
<path d="M27.8746 46.3V61.95L28.6206 61.194L25.2206 61.211L25.9736 61.967V57.532H24.4746V62.726H25.2276L28.6276 62.709H29.3736V45.543H27.8746V46.3Z" fill="#5C83E3"/>
</svg>
