<svg width="229" height="147" viewBox="0 0 229 147" fill="none" xmlns="http://www.w3.org/2000/svg">
<path d="M105.764 145.794H89.4322" stroke="#5C83E3" stroke-width="1.5" stroke-linecap="round" stroke-linejoin="round"/>
<path d="M26.0025 145.794H31.2568" stroke="#5C83E3" stroke-width="1.5" stroke-linecap="round" stroke-linejoin="round"/>
<path d="M39.1074 145.794H51.957" stroke="#5C83E3" stroke-width="1.5" stroke-linecap="round" stroke-linejoin="round"/>
<path d="M46.4492 128.512H38.2828V101.729C38.2922 101.288 38.4562 100.869 38.7399 100.561C39.0236 100.252 39.4046 100.079 39.8019 100.077H44.9302C45.3275 100.079 45.7085 100.252 45.9921 100.561C46.2758 100.869 46.4398 101.288 46.4492 101.729" stroke="#5C83E3" stroke-width="1.5" stroke-linecap="round" stroke-linejoin="round"/>
<path d="M42.1455 99.8V91.1938" stroke="#5C83E3" stroke-width="1.5" stroke-linecap="round" stroke-linejoin="round"/>
<path d="M56.1978 133.4H46.3863V128.442H60.3125C59.3285 128.861 58.4452 129.527 57.7314 130.386C57.0176 131.246 56.4928 132.278 56.1978 133.4V133.4Z" stroke="#5C83E3" stroke-width="1.5" stroke-linecap="round" stroke-linejoin="round"/>
<path d="M24.7374 128.512H33.4736" stroke="#5C83E3" stroke-width="1.5" stroke-linecap="round" stroke-linejoin="round"/>
<path d="M23.7241 107.581H32.3973C32.5271 107.564 32.6587 107.578 32.783 107.623C32.9073 107.668 33.0215 107.742 33.1177 107.84C33.2138 107.938 33.2897 108.058 33.3401 108.192C33.3905 108.325 33.4142 108.47 33.4096 108.615V114.329H25.687" stroke="#5C83E3" stroke-width="1.5" stroke-linecap="round" stroke-linejoin="round"/>
<path d="M65.2505 131.818C61.6496 131.818 58.7305 134.993 58.7305 138.909C58.7305 142.825 61.6496 146 65.2505 146C68.8514 146 71.7705 142.825 71.7705 138.909C71.7705 134.993 68.8514 131.818 65.2505 131.818Z" stroke="#5C83E3" stroke-width="1.5" stroke-linecap="round" stroke-linejoin="round"/>
<path d="M65.25 137.874C64.7257 137.874 64.3007 138.337 64.3007 138.908C64.3007 139.478 64.7257 139.941 65.25 139.941C65.7742 139.941 66.1992 139.478 66.1992 138.908C66.1992 138.337 65.7742 137.874 65.25 137.874Z" fill="#E6E7E8" stroke="#5C83E3" stroke-width="1.5" stroke-linecap="round" stroke-linejoin="round"/>
<path d="M11.8238 131.818C8.22286 131.818 5.30376 134.993 5.30376 138.909C5.30376 142.825 8.22286 146 11.8238 146C15.4246 146 18.3438 142.825 18.3438 138.909C18.3438 134.993 15.4246 131.818 11.8238 131.818Z" stroke="#5C83E3" stroke-width="1.5" stroke-linecap="round" stroke-linejoin="round"/>
<path d="M11.8232 137.874C11.299 137.874 10.874 138.337 10.874 138.908C10.874 139.478 11.299 139.941 11.8232 139.941C12.3475 139.941 12.7725 139.478 12.7725 138.908C12.7725 138.337 12.3475 137.874 11.8232 137.874Z" fill="#E6E7E8" stroke="#5C83E3" stroke-width="1.5" stroke-linecap="round" stroke-linejoin="round"/>
<path d="M79.937 131.818C76.3361 131.818 73.417 134.993 73.417 138.909C73.417 142.825 76.3361 146 79.937 146C83.5379 146 86.457 142.825 86.457 138.909C86.457 134.993 83.5379 131.818 79.937 131.818Z" stroke="#5C83E3" stroke-width="1.5" stroke-linecap="round" stroke-linejoin="round"/>
<path d="M79.9365 137.874C79.4123 137.874 78.9873 138.337 78.9873 138.908C78.9873 139.478 79.4123 139.941 79.9365 139.941C80.4608 139.941 80.8857 139.478 80.8857 138.908C80.8857 138.337 80.4608 137.874 79.9365 137.874Z" fill="#E6E7E8" stroke="#5C83E3" stroke-width="1.5" stroke-linecap="round" stroke-linejoin="round"/>
<path d="M84.6846 128.512H59.3004" stroke="#5C83E3" stroke-width="1.5" stroke-linecap="round" stroke-linejoin="round"/>
<path d="M112.095 128.511C111.097 128.903 110.2 129.56 109.483 130.424C108.766 131.288 108.25 132.333 107.98 133.469H89.0528C88.7702 132.34 88.2497 131.302 87.5343 130.44C86.8189 129.578 85.9291 128.917 84.9381 128.511" stroke="#5C83E3" stroke-width="1.5" stroke-linecap="round" stroke-linejoin="round"/>
<path d="M42.2085 128.512H46.3232V137.394H21.5719L19.9255 129.959C19.9161 129.519 19.7521 129.099 19.4684 128.791C19.1847 128.482 18.8037 128.309 18.4064 128.307H6.3157C5.91863 128.309 5.53798 128.483 5.25459 128.791C4.9712 129.1 4.8074 129.519 4.79798 129.959L4.29119 133.264H0.99968V125.689L2.6461 121.833V118.807C2.67865 118.196 2.88672 117.612 3.23988 117.141C3.59305 116.67 4.07278 116.337 4.60894 116.19L19.7378 114.257L23.2827 104.688C23.6007 104.225 24.001 103.84 24.4588 103.556C24.9166 103.272 25.4222 103.095 25.9441 103.037L38.2788 102.005" stroke="#5C83E3" stroke-width="1.5" stroke-linecap="round" stroke-linejoin="round"/>
<path fill-rule="evenodd" clip-rule="evenodd" d="M117.348 92.3641H145.707V128.236H46.4497V98.3489C46.4639 96.7633 47.0452 95.2488 48.066 94.1385C49.0868 93.0282 50.4634 92.413 51.8931 92.428L104.687 92.428L117.348 92.3641Z" stroke="#5C83E3" stroke-width="1.5" stroke-linecap="round" stroke-linejoin="round"/>
<path d="M140.896 133.4H148.872V128.442H136.781C137.765 128.861 138.649 129.527 139.362 130.386C140.076 131.246 140.601 132.278 140.896 133.4V133.4Z" stroke="#5C83E3" stroke-width="1.5" stroke-linecap="round" stroke-linejoin="round"/>
<path d="M116.968 131.818C113.367 131.818 110.448 134.993 110.448 138.909C110.448 142.825 113.367 146 116.968 146C120.569 146 123.488 142.825 123.488 138.909C123.488 134.993 120.569 131.818 116.968 131.818Z" stroke="#5C83E3" stroke-width="1.5" stroke-linecap="round" stroke-linejoin="round"/>
<path d="M116.969 137.874C116.444 137.874 116.019 138.337 116.019 138.908C116.019 139.478 116.444 139.941 116.969 139.941C117.493 139.941 117.918 139.478 117.918 138.908C117.918 138.337 117.493 137.874 116.969 137.874Z" fill="#E6E7E8" stroke="#5C83E3" stroke-width="1.5" stroke-linecap="round" stroke-linejoin="round"/>
<path d="M131.654 131.818C128.053 131.818 125.134 134.993 125.134 138.909C125.134 142.825 128.053 146 131.654 146C135.255 146 138.174 142.825 138.174 138.909C138.174 134.993 135.255 131.818 131.654 131.818Z" stroke="#5C83E3" stroke-width="1.5" stroke-linecap="round" stroke-linejoin="round"/>
<path d="M131.528 137.874C131.004 137.874 130.579 138.337 130.579 138.908C130.579 139.478 131.004 139.941 131.528 139.941C132.053 139.941 132.478 139.478 132.478 138.908C132.478 138.337 132.053 137.874 131.528 137.874Z" fill="#E6E7E8" stroke="#5C83E3" stroke-width="1.5" stroke-linecap="round" stroke-linejoin="round"/>
<path d="M2.70806 121.833H8.84863" stroke="#5C83E3" stroke-width="1.5" stroke-linecap="round" stroke-linejoin="round"/>
<path d="M143.047 145.794H148.302" stroke="#5C83E3" stroke-width="1.5" stroke-linecap="round" stroke-linejoin="round"/>
<path d="M54.0459 120.525H67.0859V110.197H54.0459V120.525Z" stroke="#5C83E3" stroke-width="1.5" stroke-linecap="round" stroke-linejoin="round"/>
<path d="M67.1504 120.525H80.1904V110.197H67.1504V120.525Z" stroke="#5C83E3" stroke-width="1.5" stroke-linecap="round" stroke-linejoin="round"/>
<path d="M67.1504 110.197H80.1904V99.8686H67.1504V110.197Z" stroke="#5C83E3" stroke-width="1.5" stroke-linecap="round" stroke-linejoin="round"/>
<path d="M80.1905 120.525H93.2305V110.197H80.1905V120.525Z" stroke="#5C83E3" stroke-width="1.5" stroke-linecap="round" stroke-linejoin="round"/>
<path d="M125.768 120.525H138.808V110.197H125.768V120.525Z" stroke="#5C83E3" stroke-width="1.5" stroke-linecap="round" stroke-linejoin="round"/>
<path d="M200.337 72.6726C200.322 71.0686 199.733 69.5368 198.701 68.4136C197.668 67.2904 196.276 66.6676 194.829 66.6819C193.383 66.668 191.991 67.291 190.959 68.4142C189.926 69.5373 189.338 71.0689 189.323 72.6726H200.337Z" fill="#F1F2F2" stroke="#5C83E3" stroke-width="1.5" stroke-linecap="round" stroke-linejoin="round"/>
<path d="M194.894 65.7865V56.1469" stroke="#5C83E3" stroke-width="1.5" stroke-linecap="round" stroke-linejoin="round"/>
<path d="M181.093 72.811C181.078 71.207 180.489 69.6753 179.456 68.5521C178.424 67.4289 177.031 66.806 175.585 66.8203C174.139 66.8064 172.747 67.4294 171.715 68.5526C170.682 69.6758 170.094 71.2073 170.079 72.811H181.093Z" fill="#F1F2F2" stroke="#5C83E3" stroke-width="1.5" stroke-linecap="round" stroke-linejoin="round"/>
<path d="M175.649 65.9249V56.2853" stroke="#5C83E3" stroke-width="1.5" stroke-linecap="round" stroke-linejoin="round"/>
<path d="M211.225 101.041V54.9099L157.672 54.9099V107.237" stroke="#5C83E3" stroke-width="1.5" stroke-linecap="round" stroke-linejoin="round"/>
<path d="M151.531 107.237V54.9099L97.9783 54.9099V85.2042" stroke="#5C83E3" stroke-width="1.5" stroke-linecap="round" stroke-linejoin="round"/>
<path d="M97.9786 43.6869H115.387V35.7691H97.9786V43.6869Z" stroke="#5C83E3" stroke-width="1.5" stroke-linecap="round" stroke-linejoin="round"/>
<path d="M121.717 43.6869H139.125V35.7691H121.717V43.6869Z" stroke="#5C83E3" stroke-width="1.5" stroke-linecap="round" stroke-linejoin="round"/>
<path d="M145.518 43.6869H162.926V35.7691H145.518V43.6869Z" stroke="#5C83E3" stroke-width="1.5" stroke-linecap="round" stroke-linejoin="round"/>
<path d="M169.256 43.6869H186.664V35.7691H169.256V43.6869Z" stroke="#5C83E3" stroke-width="1.5" stroke-linecap="round" stroke-linejoin="round"/>
<path d="M193.058 43.6869H210.466V35.7691H193.058V43.6869Z" stroke="#5C83E3" stroke-width="1.5" stroke-linecap="round" stroke-linejoin="round"/>
<path d="M98.8672 61.7957L149.949 61.7957" stroke="#5C83E3" stroke-width="1.5" stroke-linecap="round" stroke-linejoin="round"/>
<path d="M98.8672 69.5068H149.949" stroke="#5C83E3" stroke-width="1.5" stroke-linecap="round" stroke-linejoin="round"/>
<path d="M98.8672 77.218H149.949" stroke="#5C83E3" stroke-width="1.5" stroke-linecap="round" stroke-linejoin="round"/>
<path d="M98.8672 84.9292H149.949" stroke="#5C83E3" stroke-width="1.5" stroke-linecap="round" stroke-linejoin="round"/>
<path d="M87.4708 90.7139V35.6329H80.7671V19.6591L154.38 0.999883L228 19.7275V35.6374H221.354V107.238H216.542" stroke="#5C83E3" stroke-width="1.5" stroke-linecap="round" stroke-linejoin="round"/>
<path d="M197.045 140.285H210.972V129.269H197.045V140.285Z" stroke="#5C83E3" stroke-width="1.5" stroke-linecap="round" stroke-linejoin="round"/>
<path d="M183.119 140.285H197.045V129.269H183.119V140.285Z" stroke="#5C83E3" stroke-width="1.5" stroke-linecap="round" stroke-linejoin="round"/>
<path d="M197.045 129.269H210.972V118.252H197.045V129.269Z" stroke="#5C83E3" stroke-width="1.5" stroke-linecap="round" stroke-linejoin="round"/>
<path d="M197.045 118.252H210.972V107.236H197.045V118.252Z" stroke="#5C83E3" stroke-width="1.5" stroke-linecap="round" stroke-linejoin="round"/>
<path d="M183.119 129.269H197.045V118.252H183.119V129.269Z" stroke="#5C83E3" stroke-width="1.5" stroke-linecap="round" stroke-linejoin="round"/>
<path d="M169.193 140.285H183.119V129.269H169.193V140.285Z" stroke="#5C83E3" stroke-width="1.5" stroke-linecap="round" stroke-linejoin="round"/>
<path d="M141.72 140.285H161.85" stroke="#5C83E3" stroke-width="1.5" stroke-linecap="round" stroke-linejoin="round"/>
<path d="M218.441 140.285H225.404" stroke="#5C83E3" stroke-width="1.5" stroke-linecap="round" stroke-linejoin="round"/>
<path d="M161.85 133.399H155.33" stroke="#5C83E3" stroke-width="1.5" stroke-linecap="round" stroke-linejoin="round"/>
<path d="M157.355 107.237H151.785" stroke="#5C83E3" stroke-width="1.5" stroke-linecap="round" stroke-linejoin="round"/>
<path d="M164.128 107.237H178.055V96.2206H164.128V107.237Z" stroke="#5C83E3" stroke-width="1.5" stroke-linecap="round" stroke-linejoin="round"/>
<path d="M178.055 107.237H191.981V96.2206H178.055V107.237Z" stroke="#5C83E3" stroke-width="1.5" stroke-linecap="round" stroke-linejoin="round"/>
<path d="M164.128 96.2207H178.055V85.2042H164.128V96.2207Z" stroke="#5C83E3" stroke-width="1.5" stroke-linecap="round" stroke-linejoin="round"/>
<path d="M178.055 96.2207H191.981V85.2042H178.055V96.2207Z" stroke="#5C83E3" stroke-width="1.5" stroke-linecap="round" stroke-linejoin="round"/>
<path d="M205.907 101.041V96.2207H191.981V107.237" stroke="#5C83E3" stroke-width="1.5" stroke-linecap="round" stroke-linejoin="round"/>
</svg>
